# Sistema de Inventario PYMES - Diagrama de Red

## Network Architecture Diagram (Draw.io XML)

```xml
<mxfile host="app.diagrams.net">
  <diagram name="Network Architecture">
    <mxGraphModel dx="1422" dy="794" grid="1" gridSize="10" guides="1" tooltips="1" connect="1" arrows="1" fold="1" page="1" pageScale="1" pageWidth="827" pageHeight="1169">
      <root>
        <mxCell id="0"/>
        <mxCell id="1" parent="0"/>
        
        <!-- Internet -->
        <mxCell id="internet" value="Internet" style="ellipse;whiteSpace=wrap;html=1;fillColor=#f0f0f0;strokeColor=#666666;" vertex="1" parent="1">
          <mxGeometry x="350" y="20" width="100" height="60" as="geometry"/>
        </mxCell>
        
        <!-- CDN -->
        <mxCell id="cdn" value="CDN&#xa;(CloudFront)" style="rounded=1;whiteSpace=wrap;html=1;fillColor=#dae8fc;strokeColor=#6c8ebf;" vertex="1" parent="1">
          <mxGeometry x="200" y="120" width="100" height="50" as="geometry"/>
        </mxCell>
        
        <!-- WAF -->
        <mxCell id="waf" value="WAF&#xa;(Web Application Firewall)" style="rounded=1;whiteSpace=wrap;html=1;fillColor=#fff2cc;strokeColor=#d6b656;" vertex="1" parent="1">
          <mxGeometry x="500" y="120" width="150" height="50" as="geometry"/>
        </mxCell>
        
        <!-- Load Balancer -->
        <mxCell id="alb" value="Application&#xa;Load Balancer" style="rounded=1;whiteSpace=wrap;html=1;fillColor=#d5e8d4;strokeColor=#82b366;" vertex="1" parent="1">
          <mxGeometry x="350" y="220" width="100" height="60" as="geometry"/>
        </mxCell>
        
        <!-- Public Subnet -->
        <mxCell id="public-subnet" value="Public Subnet&#xa;10.0.1.0/24" style="rounded=0;whiteSpace=wrap;html=1;fillColor=#e1d5e7;strokeColor=#9673a6;dashed=1;" vertex="1" parent="1">
          <mxGeometry x="50" y="320" width="700" height="100" as="geometry"/>
        </mxCell>
        
        <!-- NAT Gateway -->
        <mxCell id="nat" value="NAT Gateway" style="rounded=1;whiteSpace=wrap;html=1;" vertex="1" parent="1">
          <mxGeometry x="100" y="350" width="80" height="40" as="geometry"/>
        </mxCell>
        
        <!-- Bastion Host -->
        <mxCell id="bastion" value="Bastion Host" style="rounded=1;whiteSpace=wrap;html=1;" vertex="1" parent="1">
          <mxGeometry x="620" y="350" width="80" height="40" as="geometry"/>
        </mxCell>
        
        <!-- Private Subnet - App -->
        <mxCell id="private-app" value="Private Subnet - Application&#xa;10.0.10.0/24" style="rounded=0;whiteSpace=wrap;html=1;fillColor=#f8cecc;strokeColor=#b85450;dashed=1;" vertex="1" parent="1">
          <mxGeometry x="50" y="460" width="350" height="120" as="geometry"/>
        </mxCell>
        
        <!-- Frontend Servers -->
        <mxCell id="frontend1" value="Frontend&#xa;Server 1" style="rounded=1;whiteSpace=wrap;html=1;" vertex="1" parent="1">
          <mxGeometry x="80" y="490" width="70" height="40" as="geometry"/>
        </mxCell>
        
        <mxCell id="frontend2" value="Frontend&#xa;Server 2" style="rounded=1;whiteSpace=wrap;html=1;" vertex="1" parent="1">
          <mxGeometry x="170" y="490" width="70" height="40" as="geometry"/>
        </mxCell>
        
        <!-- Backend Servers -->
        <mxCell id="backend1" value="Backend&#xa;Server 1" style="rounded=1;whiteSpace=wrap;html=1;" vertex="1" parent="1">
          <mxGeometry x="80" y="540" width="70" height="40" as="geometry"/>
        </mxCell>
        
        <mxCell id="backend2" value="Backend&#xa;Server 2" style="rounded=1;whiteSpace=wrap;html=1;" vertex="1" parent="1">
          <mxGeometry x="170" y="540" width="70" height="40" as="geometry"/>
        </mxCell>
        
        <mxCell id="backend3" value="Backend&#xa;Server 3" style="rounded=1;whiteSpace=wrap;html=1;" vertex="1" parent="1">
          <mxGeometry x="260" y="540" width="70" height="40" as="geometry"/>
        </mxCell>
        
        <!-- Private Subnet - Data -->
        <mxCell id="private-data" value="Private Subnet - Database&#xa;10.0.20.0/24" style="rounded=0;whiteSpace=wrap;html=1;fillColor=#fad7ac;strokeColor=#b46504;dashed=1;" vertex="1" parent="1">
          <mxGeometry x="450" y="460" width="300" height="120" as="geometry"/>
        </mxCell>
        
        <!-- Database Servers -->
        <mxCell id="db-primary" value="PostgreSQL&#xa;Primary" style="rounded=1;whiteSpace=wrap;html=1;" vertex="1" parent="1">
          <mxGeometry x="480" y="490" width="80" height="40" as="geometry"/>
        </mxCell>
        
        <mxCell id="db-replica" value="PostgreSQL&#xa;Read Replica" style="rounded=1;whiteSpace=wrap;html=1;" vertex="1" parent="1">
          <mxGeometry x="580" y="490" width="80" height="40" as="geometry"/>
        </mxCell>
        
        <!-- Redis -->
        <mxCell id="redis-cluster" value="Redis&#xa;Cluster" style="rounded=1;whiteSpace=wrap;html=1;" vertex="1" parent="1">
          <mxGeometry x="480" y="540" width="80" height="40" as="geometry"/>
        </mxCell>
        
        <!-- Backup Storage -->
        <mxCell id="s3" value="S3 Backup&#xa;Storage" style="rounded=1;whiteSpace=wrap;html=1;" vertex="1" parent="1">
          <mxGeometry x="580" y="540" width="80" height="40" as="geometry"/>
        </mxCell>
        
        <!-- Monitoring -->
        <mxCell id="monitoring" value="Monitoring&#xa;(CloudWatch)" style="rounded=1;whiteSpace=wrap;html=1;fillColor=#d0cee2;strokeColor=#56517e;" vertex="1" parent="1">
          <mxGeometry x="50" y="620" width="100" height="50" as="geometry"/>
        </mxCell>
        
        <!-- Logging -->
        <mxCell id="logging" value="Centralized&#xa;Logging (ELK)" style="rounded=1;whiteSpace=wrap;html=1;fillColor=#d0cee2;strokeColor=#56517e;" vertex="1" parent="1">
          <mxGeometry x="200" y="620" width="100" height="50" as="geometry"/>
        </mxCell>
        
        <!-- Connections -->
        <mxCell id="conn1" style="edgeStyle=orthogonalEdgeStyle;rounded=0;orthogonalLoop=1;jettySize=auto;html=1;" edge="1" parent="1" source="internet" target="cdn">
          <mxGeometry relative="1" as="geometry"/>
        </mxCell>
        
        <mxCell id="conn2" style="edgeStyle=orthogonalEdgeStyle;rounded=0;orthogonalLoop=1;jettySize=auto;html=1;" edge="1" parent="1" source="internet" target="waf">
          <mxGeometry relative="1" as="geometry"/>
        </mxCell>
        
        <mxCell id="conn3" style="edgeStyle=orthogonalEdgeStyle;rounded=0;orthogonalLoop=1;jettySize=auto;html=1;" edge="1" parent="1" source="waf" target="alb">
          <mxGeometry relative="1" as="geometry"/>
        </mxCell>
        
        <mxCell id="conn4" style="edgeStyle=orthogonalEdgeStyle;rounded=0;orthogonalLoop=1;jettySize=auto;html=1;" edge="1" parent="1" source="alb" target="frontend1">
          <mxGeometry relative="1" as="geometry"/>
        </mxCell>
        
        <mxCell id="conn5" style="edgeStyle=orthogonalEdgeStyle;rounded=0;orthogonalLoop=1;jettySize=auto;html=1;" edge="1" parent="1" source="backend1" target="db-primary">
          <mxGeometry relative="1" as="geometry"/>
        </mxCell>
      </root>
    </mxGraphModel>
  </diagram>
</mxfile>
```

## Componentes de Red

### Internet Layer
- **CDN:** Distribución de contenido estático
- **WAF:** Protección contra ataques web

### Load Balancing
- **Application Load Balancer:** Distribución de tráfico
- **Health Checks:** Verificación de servicios

### Network Segmentation
- **Public Subnet:** Servicios expuestos a internet
- **Private Subnet (App):** Servidores de aplicación
- **Private Subnet (Data):** Base de datos y cache

### Security Components
- **NAT Gateway:** Acceso saliente para subnets privadas
- **Bastion Host:** Acceso administrativo seguro
- **Security Groups:** Firewall a nivel de instancia

### Data Layer
- **PostgreSQL Primary:** Base de datos principal
- **PostgreSQL Replica:** Réplica de lectura
- **Redis Cluster:** Cache distribuido
- **S3 Storage:** Backup y archivos

### Monitoring & Logging
- **CloudWatch:** Métricas y alertas
- **ELK Stack:** Logs centralizados